<?xml version="1.0" encoding="utf-8"?>
<!-- Generator: Adobe Illustrator 19.0.0, SVG Export Plug-In . SVG Version: 6.00 Build 0)  -->
<svg version="1.1" xmlns="http://www.w3.org/2000/svg" xmlns:xlink="http://www.w3.org/1999/xlink" x="0px" y="0px"
	 viewBox="0 0 175 103" style="enable-background:new 0 0 175 103;" xml:space="preserve">
<style type="text/css">
	.st0{display:none;}
	.st1{fill:#FFFFFF;}
</style>
<g id="Layer_1" class="st0">
	
		<image style="display:inline;overflow:visible;" width="180" height="103" transform="matrix(1 0 0 1 331 246.28)">
	</image>
</g>
<g id="Layer_2">
	<g>
		<path d="M85.2,78.3v22c0,0-0.8,2.7-7.3,2.7H59.3c0,0-6.3-0.8-6.3-7.3S56.3,77.7,85.2,78.3z"/>
		<path d="M175,58.3c-7.3,43.3-45.5,44.8-45.5,44.8h-20.8V56.7c0,0,2-29.5-35-29.5c0,0-24.3,0.5-37,4.7l-2,18.5
			c0,0,12.3-4.8,29.2-4.8c16.8,0,21.3,7,21.3,11.5s0,8.7,0,8.7s-53.8-2.3-53.8,29.8c0,0-0.7,6.2,0.8,7.5H0c0,0,0-13,0-56.8
			S45,0,45,0h75.8L117,17.8l19.3,4.8l0.3,19.2h17.3l-1.5,17.8L175,58.3z"/>
	</g>
	<path class="st1" d="M363.2,349h27.2l-2.7,2.5C387.7,351.5,364.7,350.4,363.2,349z"/>
	<polygon class="st1" points="439.7,349 409.8,354.9 408.8,349 	"/>
</g>
<g id="Layer_3">
</g>
</svg>
